<svg width="186" height="52" viewBox="0 0 186 52" fill="none" xmlns="http://www.w3.org/2000/svg">
<rect y="0.106445" width="38.8748" height="7.63611" fill="white"/>
<path fill-rule="evenodd" clip-rule="evenodd" d="M0 12.3564H0.695485C22.0733 12.3564 39.3274 29.9227 39.2218 51.2501L31.5858 51.2123C31.6707 34.0667 17.7911 19.9926 0.695485 19.9926H0V12.3564Z" fill="white"/>
<rect y="12.3564" width="38.8748" height="7.63611" fill="white"/>
<path d="M69.9493 51.1652L58.653 35.4327V51.1652H50.4209V20.0661H58.653V33.5576L69.2633 20.0661H78.7302L66.3363 34.3808L79.8736 51.1652H69.9493Z" fill="white"/>
<path d="M96.8527 39.7317H92.4622V51.1652H84.2301V20.0661H96.6697C101.121 20.0661 104.368 20.8283 106.411 22.3528C108.454 23.8467 109.475 26.2097 109.475 29.4415C109.475 33.649 107.936 36.4693 104.856 37.9023L113.591 51.1652H104.079L96.8527 39.7317ZM92.4622 34.0149H96.6697C98.2857 34.0149 99.4442 33.6795 100.146 33.0088C100.877 32.338 101.243 31.3014 101.243 29.8989C101.243 28.4354 100.892 27.3835 100.191 26.7432C99.49 26.1029 98.3161 25.7828 96.6697 25.7828H92.4622V34.0149Z" fill="white"/>
<path d="M132.991 51.714C129.424 51.714 126.36 50.9975 123.799 49.5645C121.268 48.101 119.347 46.1497 118.036 43.7105C116.756 41.2714 116.115 38.5731 116.115 35.6156C116.115 32.6581 116.756 29.9598 118.036 27.5207C119.347 25.0816 121.268 23.1455 123.799 21.7125C126.36 20.2795 129.424 19.563 132.991 19.563C136.558 19.563 139.607 20.2947 142.138 21.7582C144.699 23.1912 146.62 25.1273 147.9 27.5664C149.211 29.9751 149.867 32.6581 149.867 35.6156C149.867 38.6036 149.211 41.3171 147.9 43.7563C146.62 46.1954 144.699 48.1315 142.138 49.5645C139.607 50.9975 136.558 51.714 132.991 51.714ZM132.991 45.8143C134.79 45.8143 136.33 45.3722 137.61 44.488C138.921 43.6038 139.912 42.3995 140.583 40.875C141.284 39.3201 141.635 37.5669 141.635 35.6156C141.635 32.6581 140.857 30.2342 139.302 28.3439C137.778 26.4231 135.674 25.4627 132.991 25.4627C130.308 25.4627 128.189 26.4231 126.634 28.3439C125.11 30.2342 124.347 32.6581 124.347 35.6156C124.347 37.5669 124.683 39.3201 125.353 40.875C126.055 42.3995 127.046 43.6038 128.326 44.488C129.637 45.3722 131.192 45.8143 132.991 45.8143Z" fill="white"/>
<path d="M175.575 51.1652L164.279 35.4327V51.1652H156.047V20.0661H164.279V33.5576L174.889 20.0661H184.356L171.962 34.3808L185.499 51.1652H175.575Z" fill="white"/>
<rect x="136.344" y="0.000976562" width="48.0207" height="15.1494" fill="black"/>
<rect x="137.058" y="0.71557" width="46.5915" height="13.7202" stroke="white" stroke-opacity="0.25" stroke-width="1.42919"/>
<path d="M151.437 4.96292H149.322V11.2856H147.264V4.96292H145.149V3.51087H151.437V4.96292ZM157.964 9.85646V11.2856H152.693V3.51087H157.735V4.94006H154.751V6.46071H157.278V7.8899H154.751V9.85646H157.964ZM163.401 11.4228C162.456 11.4228 161.656 11.2399 161 10.874C160.345 10.5005 159.853 10.0089 159.525 9.39912C159.205 8.78171 159.045 8.11095 159.045 7.38682C159.045 6.67033 159.213 6.00718 159.548 5.3974C159.891 4.78761 160.398 4.29978 161.069 3.93391C161.74 3.56804 162.548 3.3851 163.493 3.3851C164.377 3.3851 165.154 3.5566 165.825 3.89961L165.414 5.34023C165.132 5.1954 164.838 5.08107 164.533 4.99722C164.228 4.90576 163.882 4.86002 163.493 4.86002C162.997 4.86002 162.567 4.97436 162.201 5.20303C161.843 5.42407 161.568 5.72897 161.378 6.11771C161.195 6.49882 161.103 6.92567 161.103 7.39826C161.103 8.14525 161.301 8.75884 161.698 9.23905C162.094 9.71163 162.662 9.94793 163.401 9.94793C164.034 9.94793 164.716 9.79167 165.448 9.47915L165.837 10.8855C165.524 11.0455 165.151 11.1751 164.716 11.2742C164.282 11.3733 163.843 11.4228 163.401 11.4228ZM174.659 3.51087V11.2856H172.601V7.90133H169.411V11.2856H167.353V3.51087H169.411V6.44928H172.601V3.51087H174.659Z" fill="white"/>
</svg>
