<svg width="60" height="68" viewBox="0 0 60 68" fill="none" xmlns="http://www.w3.org/2000/svg">
<path d="M37.5335 51.9917C38.3808 49.1584 40.0753 46.6084 42.3347 44.625C46.5711 41.0833 49.2541 35.7 49.2541 29.75C49.2541 18.7 40.0754 9.6333 28.7785 10.2C18.7524 10.625 10.5621 19.125 10.2797 29.1833C10.1385 35.4167 12.8215 40.9417 17.1991 44.625C19.5997 46.6083 21.2942 49.1583 22.1415 51.9917H37.5335Z" fill="#DD2B51"/>
<path d="M27.9303 52.2751H29.2012L23.5527 31.1668C23.694 31.1668 23.8351 31.1668 23.9764 31.1668C24.6824 31.1668 25.3885 30.8835 25.9533 30.3168C26.2357 30.0335 26.5182 29.8918 26.9418 29.8918C27.3654 29.8918 27.6478 30.0335 27.9303 30.3168C28.9188 31.4501 30.6134 31.4501 31.6018 30.3168C31.8841 30.0335 32.1667 29.8918 32.5903 29.8918C32.8727 29.8918 33.2963 30.0335 33.5788 30.3168C34.1437 30.8835 34.7085 31.1668 35.5557 31.1668C35.697 31.1668 35.8381 31.1668 35.9794 31.1668L30.4721 52.2751H31.743L37.5326 30.1751C37.5326 29.8918 37.5326 29.6084 37.2502 29.4668C36.9679 29.3251 36.6854 29.4668 36.5442 29.6085C36.2619 29.8918 35.9793 30.0335 35.697 30.0335C35.2733 30.0335 34.991 29.8918 34.5673 29.6085C34.0024 29.0418 33.4377 28.7585 32.7315 28.7585C32.0254 28.7585 31.4606 29.0418 30.8958 29.6085C30.3309 30.1753 29.4836 30.1753 28.9188 29.6085C28.4952 29.0418 27.7892 28.7585 27.0831 28.7585C26.3771 28.7585 25.6709 29.0418 25.2473 29.6085C24.9649 29.8918 24.5413 30.0335 24.1176 30.0335C23.8353 30.0335 23.4116 29.8918 23.2704 29.6085C23.1291 29.4668 22.8467 29.3253 22.5644 29.4668C22.282 29.6085 22.1407 29.8918 22.282 30.1751L27.9303 52.2751Z" fill="white"/>
<path d="M25.3906 65.0251C26.0968 66.7251 27.7913 68.0001 29.7682 68.0001C31.7451 68.0001 33.4396 66.7251 34.1458 65.0251H25.3906Z" fill="#344A5E"/>
<path d="M34.9928 65.1668H24.6844C23.2722 65.1668 22.1426 64.0335 22.1426 62.6168V51.8501H37.5346V62.6168C37.5346 64.0334 36.4049 65.1668 34.9928 65.1668Z" fill="#344A5E"/>
<path d="M37.3929 57.2333H22.1421C21.2949 57.2333 20.5889 56.525 20.5889 55.675C20.5889 54.825 21.2949 54.1167 22.1421 54.1167H37.3929C38.2402 54.1167 38.9462 54.825 38.9462 55.675C38.9462 56.525 38.2402 57.2333 37.3929 57.2333Z" fill="#415A6B"/>
<path d="M37.3929 62.1918H22.1421C21.2949 62.1918 20.5889 61.4835 20.5889 60.6335C20.5889 59.7835 21.2949 59.0752 22.1421 59.0752H37.3929C38.2402 59.0752 38.9462 59.7835 38.9462 60.6335C38.9462 61.4834 38.2402 62.1918 37.3929 62.1918Z" fill="#415A6B"/>
<path d="M29.7676 0C29.0616 0 28.3555 0.566711 28.3555 1.41671V6.23342C28.3555 6.94171 28.9204 7.65013 29.7676 7.65013C30.6149 7.65013 31.1798 7.08342 31.1798 6.23342V1.41671C31.1798 0.566711 30.4736 0 29.7676 0Z" fill="#D52A4E"/>
<path d="M10.8449 8.64183C10.28 8.07512 9.43271 8.07512 8.86795 8.64183C8.3032 9.20854 8.30306 10.0585 8.86795 10.6251L12.257 14.0251C12.8219 14.5918 13.6692 14.5918 14.2339 14.0251C14.7987 13.4584 14.7988 12.6084 14.2339 12.0418L10.8449 8.64183Z" fill="#D52A4E"/>
<path d="M6.46728 28.1917H1.66606C0.96005 28.1917 0.253906 28.7584 0.253906 29.6084C0.253906 30.3167 0.818795 31.0251 1.66606 31.0251H6.46728C7.1733 31.0251 7.87944 30.4584 7.87944 29.6084C7.87944 28.8999 7.1733 28.1917 6.46728 28.1917Z" fill="#D52A4E"/>
<path d="M12.2571 45.1916L8.868 48.5916C8.30311 49.1583 8.30311 50.0083 8.868 50.5749C9.43289 51.1414 10.2802 51.1416 10.8449 50.5749L14.234 47.1749C14.7989 46.6082 14.7989 45.7582 14.234 45.1916C13.6691 44.625 12.822 44.6249 12.2571 45.1916Z" fill="#D52A4E"/>
<path d="M47.2777 45.1916C46.7128 44.6249 45.8655 44.6249 45.3006 45.1916C44.7357 45.7583 44.7357 46.6083 45.3006 47.1749L48.6897 50.5749C49.2546 51.1416 50.1018 51.1416 50.6666 50.5749C51.2313 50.0082 51.2315 49.1582 50.6666 48.5916L47.2777 45.1916Z" fill="#D52A4E"/>
<path d="M57.8687 28.1917H53.0674C52.3614 28.1917 51.6553 28.7584 51.6553 29.6084C51.6553 30.3167 52.2202 31.0251 53.0674 31.0251H57.8687C58.5747 31.0251 59.2809 30.4584 59.2809 29.6084C59.2807 28.8999 58.716 28.1917 57.8687 28.1917Z" fill="#D52A4E"/>
<path d="M48.6897 8.64178L45.3006 12.0418C44.7357 12.6085 44.7357 13.4585 45.3006 14.0251C45.8655 14.5918 46.7128 14.5918 47.2775 14.0251L50.6666 10.6251C51.2315 10.0584 51.2315 9.20836 50.6666 8.64178C50.1017 8.0752 49.2546 8.07507 48.6897 8.64178Z" fill="#D52A4E"/>
</svg>
