<svg width="51" height="50" viewBox="0 0 51 50" fill="none" xmlns="http://www.w3.org/2000/svg">
<path d="M47.1728 28.1748L50.0775 27.7178V22.2822L47.1728 21.8252C44.7821 21.4209 43.942 18.2441 45.811 16.7031L48.0032 14.8916L45.3058 10.2061L42.623 11.2139C40.3521 12.0674 38.048 9.75879 38.8997 7.47852L39.9043 4.78711L35.2338 2.08105L33.4281 4.28027C31.895 6.15137 28.7265 5.31641 28.3225 2.91406L27.8669 0H22.4489L21.9933 2.91406C21.5874 5.3125 18.4238 6.15527 16.8877 4.28027L15.082 2.08105L10.4115 4.78711L11.4161 7.47852C12.2669 9.75684 9.96569 12.0684 7.69275 11.2139L5.01 10.2061L2.31264 14.8916L4.50479 16.7031C6.36598 18.2402 5.54343 21.4189 3.14297 21.8252L0.238281 22.2822V27.7178L3.14297 28.1748C5.52397 28.5801 6.38058 31.748 4.50479 33.2969L2.31264 35.1084L5.01 39.7939L7.69275 38.7861C9.95304 37.9365 12.2717 40.2324 11.4161 42.5215L10.4115 45.2129L15.082 47.9189L16.8877 45.7197C18.4189 43.8535 21.5864 44.6777 21.9933 47.0859L22.4489 50H27.8669L28.3225 47.0859C28.7235 44.7031 31.8813 43.834 33.4281 45.7197L35.2338 47.9189L39.9043 45.2129L38.8997 42.5215C38.0528 40.2539 40.3413 37.9277 42.623 38.7861L45.3058 39.7939L48.0032 35.1084L45.811 33.2969C43.9459 31.7578 44.7782 28.582 47.1728 28.1748ZM25.1579 37.207C18.4481 37.207 12.9901 31.7314 12.9901 25C12.9901 18.2686 18.4481 12.793 25.1579 12.793C31.8677 12.793 37.3257 18.2686 37.3257 25C37.3257 31.7314 31.8677 37.207 25.1579 37.207Z" fill="#EA2D55"/>
<path d="M45.8113 33.2969L48.0035 35.1084L45.3061 39.7939L42.6234 38.7861C40.3416 37.9277 38.0531 40.2539 38.9 42.5215L39.9046 45.2129L35.2341 47.9189L33.4284 45.7197C31.8816 43.834 28.7239 44.7031 28.3228 47.0859L27.8672 50H25.1582V37.207C31.868 37.207 37.326 31.7314 37.326 25C37.326 18.2686 31.868 12.793 25.1582 12.793V0H27.8672L28.3228 2.91406C28.7268 5.31641 31.8953 6.15137 33.4284 4.28027L35.2341 2.08105L39.9046 4.78711L38.9 7.47852C38.0483 9.75879 40.3524 12.0674 42.6234 11.2139L45.3061 10.2061L48.0035 14.8916L45.8113 16.7031C43.9423 18.2441 44.7824 21.4209 47.1731 21.8252L50.0778 22.2822V27.7178L47.1731 28.1748C44.7785 28.582 43.9462 31.7578 45.8113 33.2969Z" fill="#D92B50"/>
<path d="M25.1578 11.8164C17.9116 11.8164 12.0166 17.7305 12.0166 25C12.0166 32.2695 17.9116 38.1836 25.1578 38.1836C32.404 38.1836 38.299 32.2695 38.299 25C38.299 17.7305 32.404 11.8164 25.1578 11.8164ZM25.1578 32.3242C21.1327 32.3242 17.8571 29.0391 17.8571 25C17.8571 20.9609 21.1327 17.6758 25.1578 17.6758C29.1829 17.6758 32.4585 20.9609 32.4585 25C32.4585 29.0391 29.1829 32.3242 25.1578 32.3242Z" fill="#D92B50"/>
<path d="M38.2994 25C38.2994 32.2695 32.4044 38.1836 25.1582 38.1836V32.3242C29.1833 32.3242 32.4589 29.0391 32.4589 25C32.4589 20.9609 29.1833 17.6758 25.1582 17.6758V11.8164C32.4044 11.8164 38.2994 17.7305 38.2994 25Z" fill="#AC2643"/>
</svg>
