<svg width="57" height="47" viewBox="0 0 57 47" fill="none" xmlns="http://www.w3.org/2000/svg">
<path d="M2.25684 0C1.15227 0 0.256836 0.895431 0.256836 2V36.1339C0.256836 37.2384 1.15227 38.1339 2.25684 38.1339H6.01765C7.12222 38.1339 8.01765 39.0293 8.01765 40.1339V44.7106C8.01765 46.4095 10.002 47.3347 11.3033 46.2426L20.4079 38.6019C20.7681 38.2996 21.2233 38.1339 21.6936 38.1339H54.0768C55.1813 38.1339 56.0768 37.2384 56.0768 36.1339V2C56.0768 0.895429 55.1813 0 54.0768 0H30.2308H2.25684ZM44.4993 25.1238C44.4993 25.579 44.1304 25.9479 43.6753 25.9479H12.657C12.2019 25.9479 11.833 25.579 11.833 25.1238C11.833 24.6687 12.2019 24.2998 12.657 24.2998H43.6753C44.1304 24.2998 44.4993 24.6687 44.4993 25.1238ZM44.4993 20.54C44.4993 20.9951 44.1304 21.364 43.6753 21.364H12.6571C12.2019 21.364 11.833 20.9951 11.833 20.54C11.833 20.0848 12.2019 19.7159 12.6571 19.7159H43.6753C44.1304 19.7159 44.4993 20.0848 44.4993 20.54ZM44.4993 15.9561C44.4993 16.4112 44.1304 16.7801 43.6753 16.7801H12.657C12.2019 16.7801 11.833 16.4112 11.833 15.9561C11.833 15.5009 12.2019 15.132 12.657 15.132H43.6753C44.1304 15.132 44.4993 15.5009 44.4993 15.9561Z" fill="#DD2B51"/>
</svg>
