<svg width="51" height="51" viewBox="0 0 51 51" fill="none" xmlns="http://www.w3.org/2000/svg">
<path d="M25.5 51C39.515 51 51 39.515 51 25.5C51 11.485 39.515 0 25.5 0C11.485 0 0 11.485 0 25.5C0 39.515 11.485 51 25.5 51Z" fill="#D72A4F"/>
<path d="M25.5 51V0C39.515 0 51 11.485 51 25.5C51 39.515 39.515 51 25.5 51Z" fill="#B82242"/>
<path d="M25.5 6.07617C14.8017 6.07617 6.07617 14.8017 6.07617 25.5C6.07617 36.1979 14.8017 44.9238 25.5 44.9238C36.1983 44.9238 44.9238 36.1979 44.9238 25.5C44.9238 14.8017 36.1983 6.07617 25.5 6.07617Z" fill="#E34466"/>
<path d="M44.9238 25.5C44.9238 36.1979 36.1983 44.9238 25.5 44.9238V6.07617C36.1983 6.07617 44.9238 14.8017 44.9238 25.5Z" fill="#D72A4F"/>
<path d="M29.9824 25.5C33.2695 25.5 35.959 22.8105 35.959 19.5234C35.959 16.2363 33.2695 13.5469 29.9824 13.5469H21.0176V22.5117H18.0293V25.5H21.0176V28.4883H18.0293V31.4766H21.0176V37.4531H24.0059V31.4766H31.4766V28.4883H24.0059V25.5H29.9824ZM24.0059 16.5352H29.9824C31.626 16.5352 32.9707 17.8799 32.9707 19.5234C32.9707 21.167 31.626 22.5117 29.9824 22.5117H24.0059V16.5352Z" fill="white"/>
<path d="M35.959 19.5234C35.959 22.8105 33.2695 25.5 29.9824 25.5H25.5V22.5117H29.9824C31.626 22.5117 32.9707 21.167 32.9707 19.5234C32.9707 17.8799 31.626 16.5352 29.9824 16.5352H25.5V13.5469H29.9824C33.2695 13.5469 35.959 16.2363 35.959 19.5234Z" fill="white"/>
<path d="M25.5 28.4883H31.4766V31.4766H25.5V28.4883Z" fill="white"/>
</svg>
