<svg width="74" height="44" viewBox="0 0 74 44" fill="none" xmlns="http://www.w3.org/2000/svg">
<path d="M59.8024 20.7791L57.9521 5.87421L54.4846 6.29743L54.486 6.29503L47.7637 2.54374C47.0466 2.14366 46.2237 1.96957 45.4044 2.04462L34.79 3.01803C33.4852 3.13766 32.3193 3.8759 31.661 4.99941L24.1798 17.7677C23.6273 18.7105 24.061 19.9196 25.0897 20.3049L25.3958 20.4195C25.9845 20.64 26.5896 20.7676 27.1944 20.8176L26.2464 21.6362L24.3499 23.2746L18.956 27.837C17.9958 28.6663 17.896 30.1095 18.7325 31.0616L19.2796 31.6831C20.3538 32.9045 22.2234 33.0313 23.4575 31.9659L25.519 34.3106C26.1892 35.0738 27.1712 35.4114 28.1146 35.2962C28.6816 35.2271 29.2347 34.9941 29.6967 34.5934L31.7559 36.9382C32.4286 37.7034 33.4104 38.0387 34.3538 37.9236C34.9208 37.8543 35.4741 37.6235 35.9362 37.223L37.0553 38.182C38.1297 39.4056 40.0014 39.5321 41.2355 38.4667L42.7568 37.1507L55.5465 27.2738L55.5603 27.2612L60.6064 27.2563L59.8024 20.7791Z" fill="#F29F5C"/>
<path d="M54.3214 23.4215L54.3076 23.4341L41.5179 33.3109L39.9966 34.627C38.7627 35.6924 36.8908 35.5659 35.8163 34.3423L34.6972 33.3833C34.2351 33.7838 33.6817 34.0148 33.1149 34.0839C32.1715 34.199 31.1898 33.8637 30.517 33.0985L28.4577 30.7537C27.9956 31.1542 27.4425 31.3873 26.8757 31.4565C25.9323 31.5716 24.9503 31.2342 24.2801 30.4709L22.2185 28.1262C21.162 29.0384 19.6409 29.0739 18.5506 28.2993C17.9915 29.1353 18.0362 30.2684 18.7332 31.0618L19.2803 31.6832C20.3545 32.9047 22.2241 33.0315 23.4582 31.9661L25.5197 34.3107C26.1899 35.0739 27.1719 35.4115 28.1153 35.2964C28.6822 35.2273 29.2353 34.9942 29.6974 34.5936L31.7566 36.9385C32.4293 37.7037 33.4111 38.039 34.3545 37.9239C34.9214 37.8546 35.4747 37.6238 35.9368 37.2233L37.056 38.1824C38.1304 39.4059 40.0021 39.5324 41.2362 38.467L42.7575 37.151L55.5472 27.2741L55.561 27.2616L60.6071 27.2566L60.0488 22.7598L54.3214 23.4215Z" fill="#D37D42"/>
<path d="M56.6509 29.8688L49.7984 24.01L47.8928 22.382L46.5293 21.2176L40.6666 16.2067L41.3437 10.4918C41.5728 8.55893 40.3457 6.74938 38.454 6.23037L25.6744 2.72399C24.3223 2.35296 22.8932 2.9751 22.2535 4.2133L20.6464 7.32397L13.7479 6.8597L11.9809 21.7746L11.2129 28.2562L17.9279 28.699L17.9418 28.7116L31.9701 40.7018L33.4988 42.0096C34.7387 43.0682 36.6098 42.9314 37.6774 41.7019L39.7232 39.348C40.1875 39.7459 40.7422 39.9738 41.3096 40.0399C42.2535 40.15 43.2335 39.8091 43.9019 39.0403L45.9481 36.6842C46.4123 37.0822 46.9667 37.3123 47.5341 37.3783C48.4781 37.4883 49.4582 37.1454 50.1242 36.3784L52.1725 34.0224C53.4124 35.0811 55.2813 34.9439 56.3486 33.7166L56.8924 33.0921C57.7235 32.1356 57.6157 30.693 56.6509 29.8688Z" fill="#F9C295"/>
<path d="M56.6488 29.8686L54.5616 28.084C55.2399 28.976 55.226 30.245 54.4604 31.1261L53.8832 31.789C52.7502 33.0918 50.7663 33.2374 49.45 32.1136L47.2755 34.6146C46.5686 35.4287 45.5281 35.7927 44.526 35.676C43.9237 35.6059 43.3352 35.3617 42.8423 34.9392L40.6701 37.4404C39.9606 38.2565 38.9204 38.6182 37.9183 38.5016C37.316 38.4315 36.7272 38.1895 36.2344 37.767L34.0624 40.266C33.6532 40.7373 33.1321 41.0549 32.5723 41.2185L33.4969 42.0095C34.7368 43.0681 36.6078 42.9313 37.6754 41.7018L39.7213 39.3479C40.1855 39.7458 40.7403 39.9737 41.3076 40.0398C42.2516 40.1497 43.2316 39.809 43.9 39.0402L45.9461 36.6841C46.4104 37.0821 46.9648 37.3122 47.5322 37.3782C48.4762 37.4882 49.4563 37.1453 50.1222 36.3783L52.1705 34.0223C53.4104 35.081 55.2793 34.9438 56.3466 33.7165L56.8904 33.092C57.7214 32.1353 57.6136 30.6927 56.6488 29.8686Z" fill="#E59F6A"/>
<path d="M52.8644 33.2379L49.1096 30.0277C48.6636 29.6462 47.9896 29.6956 47.6046 30.1381C47.2198 30.5807 47.2697 31.2488 47.716 31.6304L51.4642 34.835L52.1707 34.0224C52.4527 34.2633 52.7681 34.4389 53.0983 34.5573C53.342 34.1271 53.2557 33.5724 52.8644 33.2379Z" fill="#E59F6A"/>
<path d="M46.862 37.2175C47.1191 36.7851 47.0367 36.2195 46.6398 35.8801L43.2668 32.9964C42.8205 32.615 42.1468 32.6643 41.7618 33.1069C41.377 33.5494 41.4269 34.2176 41.8732 34.5992L45.2462 37.4828C45.2476 37.484 45.2491 37.485 45.2505 37.4861L45.9473 36.6837C46.2252 36.9219 46.5359 37.0987 46.862 37.2175Z" fill="#E59F6A"/>
<path d="M18.2761 28.6839L17.4633 29.7481C16.5782 30.907 16.8081 32.558 17.9769 33.4358C19.1457 34.3134 20.8107 34.0854 21.6959 32.9265L22.5087 31.8622C23.3938 30.7033 23.1639 29.0523 21.9951 28.1746C20.8263 27.297 19.1612 27.5249 18.2761 28.6839Z" fill="#F29F5C"/>
<path d="M23.2274 30.9224L21.6967 32.9266C20.8116 34.0855 21.0415 35.7365 22.2103 36.6143C23.3791 37.4919 25.0441 37.2639 25.9293 36.105L27.46 34.1008C28.3451 32.9419 28.1151 31.2909 26.9464 30.4131C25.7775 29.5355 24.1125 29.7635 23.2274 30.9224Z" fill="#F29F5C"/>
<path d="M28.0143 33.3734L25.9281 36.1048C25.0431 37.2638 25.273 38.9147 26.4417 39.7925C27.6105 40.6701 29.2755 40.4421 30.1607 39.2832L32.2469 36.5518C33.1319 35.3928 32.902 33.7419 31.7333 32.8641C30.5645 31.9863 28.8995 32.2145 28.0143 33.3734Z" fill="#F29F5C"/>
<path d="M32.3688 36.3933L30.1615 39.2832C29.2765 40.4421 29.5064 42.0931 30.6751 42.9709C31.8439 43.8485 33.5089 43.6205 34.3941 42.4616L36.6014 39.5717C37.4864 38.4128 37.2565 36.7618 36.0877 35.8841C34.9188 35.0064 33.2538 35.2344 32.3688 36.3933Z" fill="#F29F5C"/>
<path d="M54.4853 6.29528L47.7629 2.54399C47.0459 2.1439 46.2229 1.96982 45.4036 2.04487L34.7893 3.01828C33.4845 3.13791 32.3186 3.87614 31.6603 4.99965L24.179 17.7679C23.6266 18.7109 24.0602 19.9199 25.089 20.3052L25.395 20.4197C28.1373 21.4467 31.2343 20.5728 33.0202 18.2681L35.8866 14.5691C35.8866 14.5691 42.7767 22.4795 50.3626 13.2416" fill="#F29F5C"/>
<path d="M73.1316 29.2496L69.6156 0.928916C69.581 0.650436 69.4363 0.396928 69.2133 0.224254C68.9902 0.0515796 68.7072 -0.0260116 68.4262 0.0081282L60.2046 1.01173C58.0692 1.27243 56.5459 3.20711 56.8088 5.32435L59.6321 28.0654C59.8751 30.0231 61.5611 31.4619 63.5019 31.4619C63.6601 31.4619 63.8204 31.4523 63.9813 31.4327L72.203 30.4291C72.7877 30.3576 73.2036 29.8295 73.1316 29.2496Z" fill="#DD2B51"/>
<path d="M73.132 29.2496L72.746 26.1409C72.5711 26.3955 72.2916 26.5775 71.959 26.6182L63.3406 27.6701C63.1718 27.6907 63.0038 27.7007 62.8379 27.7007C61.3868 27.7007 60.072 26.933 59.3447 25.7483L59.6324 28.0653C59.8754 30.023 61.5615 31.4618 63.5022 31.4618C63.6604 31.4618 63.8208 31.4522 63.9817 31.4326L72.2033 30.429C72.7882 30.3576 73.204 29.8295 73.132 29.2496Z" fill="#C9284B"/>
<path d="M13.231 1.01153L5.00937 0.00793084C4.72809 -0.02635 4.4454 0.0513823 4.22232 0.224056C3.99923 0.39673 3.85454 0.650239 3.81997 0.928718L0.303999 29.2495C0.232009 29.8295 0.647871 30.3575 1.23261 30.4289L9.45423 31.4325C9.61528 31.4521 9.77534 31.4617 9.93369 31.4617C11.8743 31.4617 13.5605 30.0228 13.8035 28.0652L16.6267 5.32415C16.8897 3.20692 15.3664 1.27223 13.231 1.01153Z" fill="#DD2B51"/>
<path d="M0.304001 29.2496L0.689986 26.1409C0.864981 26.3955 1.1444 26.5775 1.47704 26.6182L10.0955 27.6701C10.2642 27.6907 10.4322 27.7007 10.5981 27.7007C12.0493 27.7007 13.364 26.933 14.0913 25.7483L13.8037 28.0653C13.5606 30.023 11.8746 31.4618 9.93384 31.4618C9.77564 31.4618 9.6153 31.4522 9.45439 31.4326L1.23275 30.429C0.647731 30.3576 0.232011 29.8295 0.304001 29.2496Z" fill="#C9284B"/>
<path d="M66.3107 26.76C67.4498 26.76 68.3733 25.8443 68.3733 24.7147C68.3733 23.5851 67.4498 22.6694 66.3107 22.6694C65.1715 22.6694 64.248 23.5851 64.248 24.7147C64.248 25.8443 65.1715 26.76 66.3107 26.76Z" fill="#EBEEF2"/>
<path d="M7.00993 26.76C8.1491 26.76 9.07259 25.8443 9.07259 24.7147C9.07259 23.5851 8.1491 22.6694 7.00993 22.6694C5.87075 22.6694 4.94727 23.5851 4.94727 24.7147C4.94727 25.8443 5.87075 26.76 7.00993 26.76Z" fill="#EBEEF2"/>
</svg>
