<svg width="54" height="54" viewBox="0 0 54 54" fill="none" xmlns="http://www.w3.org/2000/svg">
<g clip-path="url(#clip0)">
<path d="M39.0316 43.3055L36.3839 29.4634L26.5808 37.193L30.5072 42.2508L20.9729 51.0355C20.7831 51.2101 20.6594 51.4449 20.6227 51.7001C20.586 51.9553 20.6386 52.2154 20.7716 52.4363C20.9045 52.6573 21.1097 52.8256 21.3523 52.9127C21.595 52.9998 21.8604 53.0005 22.1035 52.9146L36.4118 47.8681C37.3221 47.5468 38.087 46.9097 38.5677 46.0726C39.0483 45.2354 39.213 44.2537 39.0316 43.3055Z" fill="#D72B4F"/>
<path d="M11.6762 15.9502L25.5184 18.5975L17.7888 28.401L12.7309 24.4746L3.94621 34.0098C3.77157 34.1993 3.53689 34.3228 3.28179 34.3593C3.02669 34.3958 2.7668 34.3432 2.546 34.2103C2.3252 34.0774 2.15702 33.8724 2.06986 33.6299C1.98271 33.3874 1.9819 33.1222 2.0676 32.8792L7.11364 18.5709C7.43484 17.6604 8.07183 16.8954 8.90899 16.4145C9.74614 15.9337 10.728 15.7689 11.6762 15.9502Z" fill="#D22A4E"/>
<path d="M42.4685 2.2478C37.2824 3.84671 30.9783 7.38286 25.053 14.9454C18.2225 23.6634 14.5298 28.6639 12.5508 31.4719L23.5444 42.4656C26.3524 40.4865 31.3529 36.7939 40.0709 29.9633C47.6331 24.0381 51.1696 17.734 52.7694 12.5483L42.4685 2.2478Z" fill="#E3E3E3"/>
<path d="M40.0714 29.9645C31.3525 36.7934 26.3537 40.4856 23.544 42.4672L21.5312 40.4544C24.3418 38.475 29.3431 34.784 38.0586 27.9521C45.6224 22.0273 49.1577 15.7228 50.7571 10.5388L52.7664 12.5486C51.1705 17.7352 47.6318 24.0367 40.0714 29.9645Z" fill="#C8CBD2"/>
<path d="M53.9327 2.87376C53.8965 2.41111 53.6965 1.97654 53.3685 1.64824C53.0405 1.31994 52.6061 1.11947 52.1435 1.0829C48.2986 0.832023 44.4451 1.41812 40.8486 2.80078L52.2148 14.1669C53.5972 10.571 54.1833 6.71808 53.9327 2.87376Z" fill="#DE2C52"/>
<path d="M52.2164 14.1652L50.207 12.1558C51.5601 8.62288 52.1507 4.84372 51.9401 1.06641C52.0093 1.07273 52.0781 1.07906 52.1443 1.08202C52.6067 1.11878 53.0408 1.31914 53.3688 1.64712C53.6968 1.9751 53.8971 2.40923 53.9339 2.87161C54.1827 6.71595 53.5968 10.5686 52.2164 14.1652Z" fill="#DA2A47"/>
<path d="M13.7698 29.7676C12.4552 31.5816 11.6317 32.7823 11.1217 33.5569C10.8892 33.9097 10.7858 34.3319 10.8289 34.7522C10.872 35.1725 11.0591 35.565 11.3583 35.8632L19.1537 43.6586C19.4521 43.9578 19.8446 44.1447 20.2648 44.1877C20.6851 44.2308 21.1073 44.1273 21.4601 43.8949C22.2347 43.3848 23.4345 42.5613 25.2494 41.2468L13.7698 29.7676Z" fill="#CF294D"/>
<path d="M25.2493 41.2455C23.4315 42.5613 22.2321 43.384 21.4596 43.8923C21.1072 44.1264 20.6845 44.2308 20.2636 44.1879C19.8428 44.145 19.4499 43.9573 19.152 43.6569L17.1426 41.6475C17.4412 41.9467 17.834 42.1335 18.2545 42.1764C18.675 42.2193 19.0974 42.1156 19.4502 41.8829C20.2227 41.3746 21.4221 40.5519 23.2399 39.2361L25.2493 41.2455Z" fill="#DA2A47"/>
<path d="M39.9207 22.7594C42.9135 21.519 44.3339 18.0873 43.0934 15.0946C41.8529 12.1018 38.4213 10.6814 35.4285 11.9219C32.4358 13.1624 31.0154 16.594 32.2559 19.5868C33.4963 22.5795 36.928 23.9999 39.9207 22.7594Z" fill="white"/>
<path d="M13.0891 41.2842C13.0891 41.2842 17.2598 44.6208 14.6977 48.9707C12.1357 53.3207 8.56069 52.3668 8.56069 52.3668C8.56069 52.3668 9.75248 50.6587 9.57319 50.1224C9.57319 50.1224 5.20383 55.3659 0 51.3936C0 51.3936 2.18489 50.5595 2.64136 48.7522C3.09783 46.9449 3.97238 45.2367 5.06461 44.4225C4.75012 44.7223 4.35369 44.922 3.92558 44.9962C3.49747 45.0704 3.05696 45.0158 2.65992 44.8393C3.03418 44.6354 3.33864 44.3239 3.53389 43.945C3.72914 43.5662 3.80621 43.1375 3.75511 42.7143C3.57539 41.2247 9.15511 37.2721 13.0891 41.2842Z" fill="#CF294D"/>
<path d="M13.5775 41.7596C13.5775 41.7596 11.6276 39.3224 9.08576 40.8197C6.54396 42.3169 7.10295 44.4056 7.10295 44.4056C7.10295 44.4056 8.1011 43.7095 8.41456 43.815C8.41456 43.815 5.35048 46.3682 7.67163 49.409C7.67163 49.409 8.15932 48.1324 9.21527 47.8654C10.2712 47.5983 11.2694 47.0879 11.7465 46.4496C11.5717 46.6334 11.4552 46.8649 11.4118 47.1148C11.3684 47.3648 11.4 47.622 11.5027 47.854C11.6222 47.6356 11.8044 47.4581 12.0258 47.3443C12.2472 47.2305 12.4976 47.1857 12.7447 47.2157C13.6121 47.3186 15.9218 44.0575 13.5775 41.7596Z" fill="#FFC943"/>
</g>
<defs>
<clipPath id="clip0">
<rect width="54" height="54" fill="white"/>
</clipPath>
</defs>
</svg>
