<svg width="135" height="37" viewBox="0 0 135 37" fill="none" xmlns="http://www.w3.org/2000/svg">
<rect y="0.077179" width="28.2903" height="5.55703" fill="url(#paint0_linear)"/>
<path fill-rule="evenodd" clip-rule="evenodd" d="M0 8.16016H0.506125C16.0634 8.16016 28.6197 20.9437 28.5429 36.4642L22.9859 36.4367C23.0477 23.9594 12.9471 13.7172 0.506125 13.7172H0V8.16016Z" fill="url(#paint1_linear)"/>
<rect y="8.16016" width="28.2903" height="5.55703" fill="url(#paint2_linear)"/>
<path d="M50.9048 36.4021L42.6841 24.9531V36.4021H36.6934V13.7704H42.6841V23.5886L50.4055 13.7704H57.2949L48.2755 24.1877L58.1269 36.4021H50.9048Z" fill="url(#paint3_linear)"/>
<path d="M70.4831 28.0816H67.2881V36.4021H61.2973V13.7704H70.35C73.5895 13.7704 75.9525 14.3251 77.4391 15.4345C78.9257 16.5217 79.669 18.2413 79.669 20.5932C79.669 23.6551 78.5485 25.7075 76.3075 26.7504L82.6643 36.4021H75.7417L70.4831 28.0816ZM67.2881 23.9214H70.35C71.526 23.9214 72.3691 23.6773 72.8794 23.1892C73.412 22.7011 73.6782 21.9467 73.6782 20.926C73.6782 19.861 73.4231 19.0955 72.9127 18.6296C72.4024 18.1636 71.5482 17.9306 70.35 17.9306H67.2881V23.9214Z" fill="url(#paint4_linear)"/>
<path d="M96.7821 36.8015C94.1861 36.8015 91.9563 36.2801 90.0925 35.2373C88.2509 34.1722 86.853 32.7522 85.8989 30.9772C84.967 29.2021 84.5011 27.2385 84.5011 25.0863C84.5011 22.934 84.967 20.9704 85.8989 19.1954C86.853 17.4203 88.2509 16.0114 90.0925 14.9685C91.9563 13.9257 94.1861 13.4043 96.7821 13.4043C99.3781 13.4043 101.597 13.9368 103.439 15.0018C105.302 16.0447 106.7 17.4536 107.632 19.2286C108.586 20.9815 109.063 22.934 109.063 25.0863C109.063 27.2607 108.586 29.2354 107.632 31.0105C106.7 32.7855 105.302 34.1944 103.439 35.2373C101.597 36.2801 99.3781 36.8015 96.7821 36.8015ZM96.7821 32.5082C98.0912 32.5082 99.2117 32.1864 100.144 31.543C101.098 30.8995 101.819 30.0231 102.307 28.9137C102.817 27.7821 103.072 26.5063 103.072 25.0863C103.072 22.934 102.507 21.1701 101.375 19.7944C100.266 18.3966 98.7347 17.6977 96.7821 17.6977C94.8296 17.6977 93.2875 18.3966 92.1559 19.7944C91.0465 21.1701 90.4918 22.934 90.4918 25.0863C90.4918 26.5063 90.7359 27.7821 91.224 28.9137C91.7344 30.0231 92.4555 30.8995 93.3874 31.543C94.3415 32.1864 95.473 32.5082 96.7821 32.5082Z" fill="url(#paint5_linear)"/>
<path d="M127.772 36.4021L119.551 24.9531V36.4021H113.56V13.7704H119.551V23.5886L127.273 13.7704H134.162L125.143 24.1877L134.994 36.4021H127.772Z" fill="url(#paint6_linear)"/>
<path d="M50.9048 36.4021L42.6841 24.9531V36.4021H36.6934V13.7704H42.6841V23.5886L50.4055 13.7704H57.2949L48.2755 24.1877L58.1269 36.4021H50.9048Z" fill="url(#paint7_linear)"/>
<path d="M70.4831 28.0816H67.2881V36.4021H61.2973V13.7704H70.35C73.5895 13.7704 75.9525 14.3251 77.4391 15.4345C78.9257 16.5217 79.669 18.2413 79.669 20.5932C79.669 23.6551 78.5485 25.7075 76.3075 26.7504L82.6643 36.4021H75.7417L70.4831 28.0816ZM67.2881 23.9214H70.35C71.526 23.9214 72.3691 23.6773 72.8794 23.1892C73.412 22.7011 73.6782 21.9467 73.6782 20.926C73.6782 19.861 73.4231 19.0955 72.9127 18.6296C72.4024 18.1636 71.5482 17.9306 70.35 17.9306H67.2881V23.9214Z" fill="url(#paint8_linear)"/>
<path d="M96.7821 36.8015C94.1861 36.8015 91.9563 36.2801 90.0925 35.2373C88.2509 34.1722 86.853 32.7522 85.8989 30.9772C84.967 29.2021 84.5011 27.2385 84.5011 25.0863C84.5011 22.934 84.967 20.9704 85.8989 19.1954C86.853 17.4203 88.2509 16.0114 90.0925 14.9685C91.9563 13.9257 94.1861 13.4043 96.7821 13.4043C99.3781 13.4043 101.597 13.9368 103.439 15.0018C105.302 16.0447 106.7 17.4536 107.632 19.2286C108.586 20.9815 109.063 22.934 109.063 25.0863C109.063 27.2607 108.586 29.2354 107.632 31.0105C106.7 32.7855 105.302 34.1944 103.439 35.2373C101.597 36.2801 99.3781 36.8015 96.7821 36.8015ZM96.7821 32.5082C98.0912 32.5082 99.2117 32.1864 100.144 31.543C101.098 30.8995 101.819 30.0231 102.307 28.9137C102.817 27.7821 103.072 26.5063 103.072 25.0863C103.072 22.934 102.507 21.1701 101.375 19.7944C100.266 18.3966 98.7347 17.6977 96.7821 17.6977C94.8296 17.6977 93.2875 18.3966 92.1559 19.7944C91.0465 21.1701 90.4918 22.934 90.4918 25.0863C90.4918 26.5063 90.7359 27.7821 91.224 28.9137C91.7344 30.0231 92.4555 30.8995 93.3874 31.543C94.3415 32.1864 95.473 32.5082 96.7821 32.5082Z" fill="url(#paint9_linear)"/>
<path d="M127.772 36.4021L119.551 24.9531V36.4021H113.56V13.7704H119.551V23.5886L127.273 13.7704H134.162L125.143 24.1877L134.994 36.4021H127.772Z" fill="url(#paint10_linear)"/>
<rect x="99.2217" width="34.9461" height="11.0247" fill="url(#paint11_linear)"/>
<path d="M110.205 3.15069H108.665V7.75192H107.168V3.15069H105.628V2.09399H110.205V3.15069ZM114.954 6.71186V7.75192H111.119V2.09399H114.788V3.13405H112.616V4.24067H114.455V5.28074H112.616V6.71186H114.954ZM118.911 7.85177C118.224 7.85177 117.641 7.71864 117.164 7.45238C116.687 7.18058 116.329 6.8228 116.091 6.37904C115.858 5.92973 115.741 5.4416 115.741 4.91463C115.741 4.39322 115.863 3.91063 116.107 3.46687C116.357 3.02311 116.726 2.6681 117.214 2.40185C117.702 2.13559 118.29 2.00246 118.978 2.00246C119.621 2.00246 120.187 2.12727 120.675 2.37688L120.376 3.42527C120.171 3.31987 119.957 3.23667 119.735 3.17565C119.513 3.10909 119.261 3.07581 118.978 3.07581C118.617 3.07581 118.304 3.15901 118.038 3.32542C117.777 3.48628 117.577 3.70816 117.439 3.99106C117.306 4.26841 117.239 4.57904 117.239 4.92296C117.239 5.46656 117.383 5.91309 117.672 6.26255C117.96 6.60647 118.373 6.77842 118.911 6.77842C119.372 6.77842 119.868 6.66471 120.401 6.43728L120.684 7.46071C120.456 7.57719 120.184 7.67149 119.868 7.7436C119.552 7.81571 119.233 7.85177 118.911 7.85177ZM127.104 2.09399V7.75192H125.606V5.28906H123.285V7.75192H121.787V2.09399H123.285V4.23235H125.606V2.09399H127.104Z" fill="white"/>
<defs>
<linearGradient id="paint0_linear" x1="28.2903" y1="2.8557" x2="-6.57692e-08" y2="2.8557" gradientUnits="userSpaceOnUse">
<stop stop-color="#EA2D55"/>
<stop offset="1" stop-color="#B62544"/>
</linearGradient>
<linearGradient id="paint1_linear" x1="22.4807" y1="33.9246" x2="8.20925" y2="12.5805" gradientUnits="userSpaceOnUse">
<stop stop-color="#EA2D55"/>
<stop offset="1" stop-color="#370C15"/>
</linearGradient>
<linearGradient id="paint2_linear" x1="28.2903" y1="10.9387" x2="-6.57692e-08" y2="10.9387" gradientUnits="userSpaceOnUse">
<stop stop-color="#EA2D55"/>
<stop offset="1" stop-color="#B62544"/>
</linearGradient>
<linearGradient id="paint3_linear" x1="117.943" y1="3.64021" x2="108.062" y2="23.0894" gradientUnits="userSpaceOnUse">
<stop stop-color="#1BA7E3"/>
<stop offset="1" stop-color="white"/>
</linearGradient>
<linearGradient id="paint4_linear" x1="117.943" y1="3.64021" x2="108.062" y2="23.0894" gradientUnits="userSpaceOnUse">
<stop stop-color="#1BA7E3"/>
<stop offset="1" stop-color="white"/>
</linearGradient>
<linearGradient id="paint5_linear" x1="117.943" y1="3.64021" x2="108.062" y2="23.0894" gradientUnits="userSpaceOnUse">
<stop stop-color="#1BA7E3"/>
<stop offset="1" stop-color="white"/>
</linearGradient>
<linearGradient id="paint6_linear" x1="117.943" y1="3.64021" x2="108.062" y2="23.0894" gradientUnits="userSpaceOnUse">
<stop stop-color="#1BA7E3"/>
<stop offset="1" stop-color="white"/>
</linearGradient>
<linearGradient id="paint7_linear" x1="26.5216" y1="31.9299" x2="63.6518" y2="25.5855" gradientUnits="userSpaceOnUse">
<stop stop-color="#FF2251"/>
<stop offset="1" stop-color="white" stop-opacity="0"/>
</linearGradient>
<linearGradient id="paint8_linear" x1="26.5216" y1="31.9299" x2="63.6518" y2="25.5855" gradientUnits="userSpaceOnUse">
<stop stop-color="#FF2251"/>
<stop offset="1" stop-color="white" stop-opacity="0"/>
</linearGradient>
<linearGradient id="paint9_linear" x1="26.5216" y1="31.9299" x2="63.6518" y2="25.5855" gradientUnits="userSpaceOnUse">
<stop stop-color="#FF2251"/>
<stop offset="1" stop-color="white" stop-opacity="0"/>
</linearGradient>
<linearGradient id="paint10_linear" x1="26.5216" y1="31.9299" x2="63.6518" y2="25.5855" gradientUnits="userSpaceOnUse">
<stop stop-color="#FF2251"/>
<stop offset="1" stop-color="white" stop-opacity="0"/>
</linearGradient>
<linearGradient id="paint11_linear" x1="109.635" y1="8.73652" x2="125.588" y2="-8.4023" gradientUnits="userSpaceOnUse">
<stop stop-color="#14A3E2"/>
<stop offset="1" stop-color="#9DEDEB"/>
</linearGradient>
</defs>
</svg>
