<svg width="31" height="31" viewBox="0 0 31 31" xmlns="http://www.w3.org/2000/svg">
<path d="M15.5005 9.29104C12.0645 9.29104 9.29143 12.0641 9.29143 15.5001C9.29143 18.9362 12.0645 21.7092 15.5005 21.7092C18.9365 21.7092 21.7096 18.9362 21.7096 15.5001C21.7096 12.0641 18.9365 9.29104 15.5005 9.29104ZM15.5005 19.5356C13.2784 19.5356 11.4651 17.7222 11.4651 15.5001C11.4651 13.278 13.2784 11.4647 15.5005 11.4647C17.7226 11.4647 19.536 13.278 19.536 15.5001C19.536 17.7222 17.7226 19.5356 15.5005 19.5356ZM21.9639 7.58967C21.1616 7.58967 20.5138 8.23752 20.5138 9.03977C20.5138 9.84201 21.1616 10.4899 21.9639 10.4899C22.7661 10.4899 23.414 9.84504 23.414 9.03977C23.4142 8.84927 23.3769 8.6606 23.3041 8.48456C23.2313 8.30851 23.1245 8.14856 22.9898 8.01386C22.8551 7.87916 22.6951 7.77235 22.5191 7.69956C22.3431 7.62678 22.1544 7.58943 21.9639 7.58967ZM27.6038 15.5001C27.6038 13.829 27.619 12.1731 27.5251 10.505C27.4313 8.5675 26.9893 6.84797 25.5725 5.43117C24.1527 4.01135 22.4362 3.57238 20.4987 3.47854C18.8276 3.38469 17.1716 3.39983 15.5035 3.39983C13.8324 3.39983 12.1765 3.38469 10.5084 3.47854C8.57092 3.57238 6.85139 4.01438 5.43459 5.43117C4.01477 6.851 3.5758 8.5675 3.48196 10.505C3.38811 12.1761 3.40324 13.8321 3.40324 15.5001C3.40324 17.1682 3.38811 18.8272 3.48196 20.4952C3.5758 22.4327 4.0178 24.1523 5.43459 25.5691C6.85442 26.9889 8.57092 27.4279 10.5084 27.5217C12.1795 27.6155 13.8355 27.6004 15.5035 27.6004C17.1746 27.6004 18.8306 27.6155 20.4987 27.5217C22.4362 27.4279 24.1557 26.9859 25.5725 25.5691C26.9923 24.1492 27.4313 22.4327 27.5251 20.4952C27.622 18.8272 27.6038 17.1712 27.6038 15.5001ZM24.9398 22.6386C24.7188 23.1896 24.4524 23.6013 24.0255 24.0251C23.5987 24.452 23.19 24.7184 22.639 24.9394C21.0466 25.5721 17.2654 25.4298 15.5005 25.4298C13.7356 25.4298 9.95139 25.5721 8.35901 24.9424C7.80803 24.7214 7.39631 24.455 6.97248 24.0281C6.54563 23.6013 6.27922 23.1926 6.05822 22.6416C5.42854 21.0462 5.57082 17.2651 5.57082 15.5001C5.57082 13.7352 5.42854 9.951 6.05822 8.35861C6.27922 7.80764 6.54563 7.39592 6.97248 6.97209C7.39934 6.54826 7.80803 6.27883 8.35901 6.05783C9.95139 5.42815 13.7356 5.57043 15.5005 5.57043C17.2654 5.57043 21.0496 5.42815 22.642 6.05783C23.193 6.27883 23.6047 6.54524 24.0285 6.97209C24.4554 7.39895 24.7218 7.80764 24.9428 8.35861C25.5725 9.951 25.4302 13.7352 25.4302 15.5001C25.4302 17.2651 25.5725 21.0462 24.9398 22.6386Z"/>
</svg>
