<svg width="33" height="19" viewBox="0 0 33 19" xmlns="http://www.w3.org/2000/svg">
<path fill-rule="evenodd" clip-rule="evenodd" d="M32.2438 1.68251C32.472 0.977258 32.2438 0.458008 31.1506 0.458008H27.5413C26.6228 0.458008 26.1993 0.906216 25.9696 1.40092C25.9696 1.40092 24.134 5.52909 21.5339 8.21059C20.6924 8.98818 20.3101 9.23488 19.8509 9.23488C19.6213 9.23488 19.2761 8.98818 19.2761 8.28163V1.68251C19.2761 0.835174 19.0231 0.458008 18.2586 0.458008H12.5826C12.0093 0.458008 11.6641 0.850674 11.6641 1.22397C11.6641 2.02609 12.9649 2.21209 13.0983 4.46992V9.37568C13.0983 10.4516 12.8879 10.6467 12.4286 10.6467C11.2049 10.6467 8.228 6.49913 6.46113 1.75355C6.11875 0.830008 5.77225 0.458008 4.84963 0.458008H1.2375C0.20625 0.458008 0 0.906216 0 1.40092C0 2.28184 1.22375 6.65801 5.69938 12.446C8.68313 16.3985 12.8838 18.5413 16.7104 18.5413C19.0053 18.5413 19.2885 18.066 19.2885 17.2458V14.2582C19.2885 13.3062 19.5058 13.1163 20.2331 13.1163C20.7694 13.1163 21.6865 13.3643 23.8288 15.2696C26.2763 17.5287 26.6791 18.5413 28.0569 18.5413H31.6663C32.6975 18.5413 33.2145 18.066 32.9175 17.1257C32.5903 16.1905 31.4215 14.833 29.8719 13.2223C29.0304 12.3052 27.7681 11.3171 27.3845 10.8223C26.8496 10.1881 27.0023 9.90526 27.3845 9.3408C27.3845 9.3408 31.7845 3.62388 32.2424 1.68251H32.2438Z"/>
</svg>
